<svg fill="none" height="32" viewBox="0 0 32 32" width="32" xmlns="http://www.w3.org/2000/svg" xmlns:xlink="http://www.w3.org/1999/xlink"><clipPath id="a"><path d="m0 0h32v32h-32z"/></clipPath><g clip-path="url(#a)"><path d="m19 8c0-1.66-1.34-3-3-3s-3 1.34-3 3 1.34 3 3 3 3-1.34 3-3zm3 13c0-3.31-2.69-6-6-6s-6 2.69-6 6 2.69 6 6 6 6-2.69 6-6zm4-19v28c0 .55-.45 1-1 1h-18c-.55 0-1-.45-1-1v-28c0-.55.45-1 1-1h18c.55 0 1 .45 1 1z" fill="#ffc44d"/><path d="m16 15c3.31 0 6 2.69 6 6s-2.69 6-6 6-6-2.69-6-6 2.69-6 6-6zm0-10c1.66 0 3 1.34 3 3s-1.34 3-3 3-3-1.34-3-3 1.34-3 3-3z" fill="#668077"/><path d="m16 20c.55 0 1 .45 1 1s-.45 1-1 1-1-.45-1-1 .45-1 1-1z" fill="#ffc44d"/><path d="m29.5165 19.5547c.916-.906 1.483-2.164 1.483-3.555 0-1.381-.559-2.631-1.464-3.535m-27.05219.0001c-.916.906-1.483 2.164-1.483 3.555 0 1.381.559 2.631 1.464 3.535m23.53559 10.4452c0 .553-.447 1-1 1h-17.99999c-.553 0-1-.447-1-1v-28c0-.553.447-1 1-1h17.99999c.553 0 1 .447 1 1zm-4-9c0-3.314-2.686-6-6-6s-5.99999 2.686-5.99999 6 2.68599 6 5.99999 6 6-2.686 6-6zm-3-13c0-1.656-1.344-3-3-3s-3 1.344-3 3 1.344 3 3 3 3-1.344 3-3zm-2 13c0-.553-.447-1-1-1s-1 .447-1 1 .447 1 1 1 1-.447 1-1z" stroke="#000" stroke-linecap="round" stroke-linejoin="round" stroke-width="2"/></g></svg>